<?xml version="1.0" encoding="UTF-8"?>
<svg id="Layer_2" data-name="Layer 2" xmlns="http://www.w3.org/2000/svg" viewBox="0 0 1000 424">
  <defs>
    <style>
      .cls-1 {
        fill: #112521;
      }
    </style>
  </defs>
  <path class="cls-1" d="M367.52,160.58c.83-3.08,2.93-5.16,5.35-8.11,2.01-2.28,4.24-4.49,7.02-5.75,3.09-1.62,8.41-1.41,9.63-2.64,1.79-1.92-3.41-5.74-5.41-8.22-1.82-1.97-3.54-4.11-4.86-6.43-1.96-3.39-2.89-7.03-4.42-10.72-4.7-11.48-14.89-20.25-26.9-23.4-24.07-6.81-50.1,10.99-51.15,36.02-.34,5.89.65,11.84,2.92,17.28,1.39,3.42,3.57,6.8,3.43,9.89-.13,5.4-5.62,9.68-7.71,13.92-2.84,5.29,2.3,11.16,4.94,15.51,3.19,4.86,4.99,2.7,7.58-.85,3.82-5.35,9.08-12.79,13.12-18.56,5.89-7.83,5.88-10.65-1.72-17.52-6.29-6.06-8.84-15.78-6.33-24.17,3.47-12.78,17.64-20.43,30.34-17.15,11.03,2.54,19.12,12.61,19.09,23.78.06,5.16-1.08,9.56-4.49,13.77-2.16,2.77-4.86,5.39-7.26,7.9-1.79,1.9-4.95,5-4.13,7.43.27,1.17,1.08,2.27,1.81,3.37,5.84,8.08,17.36,23.83,22.35,30.75.65,1.08,2.35,2.89,1.35,3.86-1.59.85-3.74.54-5.6.65-5.6.03-13.99-.01-20.16.01-2.68.01-6.97.14-8.18.7-13.65,12.15-66.15,70.31-77.96,82.1-2.61,2.81-4.4,2-9.03,2.2-9.38-.08-24.81.13-33.81-.07-1.25-.13-2.78-.09-1.38-1.6,12.06-13.54,70.69-77.32,81.7-90.02.54-1.09-2.05-1.02-2.88-1.09-3.85-.05-9.9-.09-14.23.28-2.16.27-2.82.58-4.02,1.84-17.91,18.7-85.97,95.16-105.37,113.17-3.95,3.78-8.21,4.49-13.53,4.36-5.06.04-12.04,0-16.3.08-1.05.06-1.99.05-2.9.24-.82.19-1.47.35-1.47,1.17.06.63.73,1.55,1.81,2.73,3.38,3.4,7.09,7.32,10.86,10.4,4.25,3.66,10.28,3.07,15.66,3.14,6.71.09,12.25.08,17.29-4.77,4.09-3.53,6.53-7.57,4.3-12.46-1.1-3.34-5.86-9.99-4.95-12.27.58-.79,1.4-.71,2.51-.82,12.05-.07,42.69-.03,54.61-.03,1.91.06,5.2-.28,3.65,2.34-.56,1.08-1.33,2.13-2.08,3.19-2.28,3.18-5.94,8.04-8.47,11.55-1.13,1.82-3.87,4.76-1.49,5.98,3.25,1.06,7.3.58,10.86.7,3.54.03,6.55-.02,9.65,0,16.84-.13,43.63.31,60.92-.21,1.62-.26,2.3-.99,3.41-2.16,11.21-12.22,51.52-56.56,62.43-68.49,1.49-1.57,2.44-2.92.59-4.82-2.67-2.82-6.13-5.51-9.79-7.04-4.12-1.74-10.15-1.23-14.96-1.28-2.4.07-5.77-.11-7.62.59-1.21.49-1.08,1.48.04,2.96,1.3,1.74,3.78,4.02,5.55,5.95,1.84,2.21,3.35,3.42,2.36,5.68-8.32,10.12-28.03,30.74-40.51,44.78-3.45,3.63-5.29,6.2-8.23,8.66-1.65,1.13-3.64,1.03-5.7,1.1-9.31.07-28.01,0-36.38.01-1.5-.03-3.25.11-4.44-.39-.22-.18-.15-.43.11-.8.19-.27.49-.61.86-1.01,12.49-12.43,72.25-78.68,85.87-90.38,1.17-.3,3.07-.33,6.27-.34,6.47-.01,18.54,0,25.65,0,2.5-.11,5.59.2,7.04-2.15,1.6-3.19,1.03-7.82,1.15-11.56-.1-6.63.61-12.45-2.95-18.08-3.03-4.72-6.74-9.4-10-14.02-2.2-3.49-5.92-6.8-5.33-10.56v-.07Z"/>
  <g>
    <path class="cls-1" d="M486.94,103.57v42.86h-10.55v-42.86h-16.49v-9.14h43.53v9.14h-16.49Z"/>
    <path class="cls-1" d="M558.4,146.42v-21.69h-22.51v21.69h-10.55v-52h10.55v20.95h22.51v-20.95h10.55v52h-10.55Z"/>
    <path class="cls-1" d="M603.27,103.49v12.18h22.36v8.77h-22.36v12.92h27.26v9.06h-37.51v-52h37.51v9.06h-27.26Z"/>
    <path class="cls-1" d="M505.66,235.77c-6.24,1.63-14.34,2.6-21.84,2.6s-15.52-.97-21.76-2.6v-50.44h10.55v43.9h22.51v-43.9h10.55v50.44Z"/>
    <path class="cls-1" d="M569.47,185.33c1.78,4.38,2.75,10.84,2.75,17.16s-.97,12.48-2.67,16.79h-29.27v18.05h-10.55v-52h39.74ZM540.28,210.66h20.5c.67-2.08.89-5.27.89-8.25s-.22-6.24-.89-8.25h-20.5v16.49Z"/>
    <path class="cls-1" d="M631.13,228.19v9.14h-36.03v-52h10.55v42.86h25.48Z"/>
    <path class="cls-1" d="M662.77,224.85l-3.71,12.48h-10.7l16.64-52.37h14.86l16.71,52.37h-10.92l-3.71-12.48h-19.16ZM672.43,192.91l-6.98,23.18h13.89l-6.91-23.18Z"/>
    <path class="cls-1" d="M760.01,237.33h-11.22l-21.99-34.76v34.76h-10.4v-52h11.22l21.99,34.76v-34.76h10.4v52Z"/>
    <path class="cls-1" d="M804.59,185.33c9.28,0,17.98,3.12,23.1,8.24v35.51c-5.12,5.13-13.82,8.25-23.1,8.25h-20.5v-52h20.5ZM794.63,228.27h8.77c5.79,0,10.84-1.19,13.74-3.64v-26.59c-2.97-2.3-8.02-3.64-13.74-3.64h-8.77v33.87Z"/>
    <path class="cls-1" d="M472.6,284.33v35.8h22.51v-11.36h-10.33v-7.87h20.87v25.77c-6.24,1.63-14.34,2.6-21.84,2.6s-15.52-.97-21.76-2.6v-48.88c6.24-1.63,14.34-2.6,21.76-2.6s15.6.97,21.84,2.6v15.6h-10.55v-9.06h-22.51Z"/>
    <path class="cls-1" d="M572.66,328.23h-11.36l-11.07-18.05h-9.95v18.05h-10.55v-52h40.11c1.86,4.38,2.82,10.99,2.82,17.16s-.97,12.33-2.67,16.79h-8.54l11.22,18.05ZM561.22,301.64c.67-2.15.89-5.35.89-8.32s-.22-6.31-.89-8.32h-20.95v16.64h20.95Z"/>
    <path class="cls-1" d="M639.07,277.8v48.88c-6.24,1.63-14.34,2.6-21.84,2.6s-15.52-.97-21.76-2.6v-48.88c6.24-1.63,14.34-2.6,21.76-2.6s15.6.97,21.84,2.6ZM606.02,320.14h22.51v-35.8h-22.51v35.8Z"/>
    <path class="cls-1" d="M706.75,326.67c-6.24,1.63-14.34,2.6-21.84,2.6s-15.52-.97-21.76-2.6v-50.44h10.55v43.9h22.51v-43.9h10.55v50.44Z"/>
    <path class="cls-1" d="M770.56,276.24c1.78,4.38,2.75,10.84,2.75,17.16s-.97,12.48-2.67,16.79h-29.27v18.05h-10.55v-52h39.74ZM741.37,301.57h20.5c.67-2.08.89-5.27.89-8.25s-.22-6.24-.89-8.25h-20.5v16.49Z"/>
  </g>
</svg>